<?xml version="1.0" encoding="utf-8"?>
<!-- Generator: Adobe Illustrator 15.0.2, SVG Export Plug-In . SVG Version: 6.00 Build 0)  -->
<!DOCTYPE svg PUBLIC "-//W3C//DTD SVG 1.1//EN" "http://www.w3.org/Graphics/SVG/1.1/DTD/svg11.dtd">
<svg version="1.1" id="Livello_1" xmlns="http://www.w3.org/2000/svg" xmlns:xlink="http://www.w3.org/1999/xlink" x="0px" y="0px"
	 width="1001px" height="1001px" viewBox="0 0 1001 1001" enable-background="new 0 0 1001 1001" xml:space="preserve">
<path d="M545,90c-145.2,8.4-274.3,92.1-342.3,222c-11,21-23.3,51.8-29.5,73.7l-2,7.3h9.3h9.4l3.2-10.3c9.5-31.101,26.2-66.3,45.5-96
	c16.8-25.7,32.8-45.1,56-67.8c58.2-56.8,132.4-94.1,211.7-106.3c22.7-3.5,36.9-4.6,61.8-4.6C680.8,108,788.7,154.5,869.2,237.8
	C923.8,294.4,961.1,366.4,972.9,438.5c2.8,16.8,3.1,17.9,2.5,10.5c-1.4-16.8-8.7-50.7-16-73.2C925.3,269.6,849.1,181.1,749.5,132
	C686.1,100.8,614.3,86,545,90z"/>
<path fill="#186D69" d="M21.7,411.7c-0.4,0.3-0.7,40.2-0.7,88.5V588h51h51.1l-0.3-8.3l-0.3-8.2l-41.2-0.3L40,571v-80v-80h-8.8
	C26.3,411,22,411.3,21.7,411.7z"/>
<path fill="#186D69" d="M166.6,411.8c-0.9,1.5-5.5,28-7.3,42.4c-1.4,11.1-1.8,21.5-1.8,46.8c0,34.7,0.9,45.7,6.1,74
	c30.2,165.2,160.5,296.8,325.8,328.9c59.8,11.699,122.3,9.8,180.699-5.301C815.9,860.8,930.1,745.9,966.4,600.2
	c4-15.8,7.199-32.101,8-40.7c0.399-3.7-0.301-1.4-1.801,6C957.8,641.3,922.9,707.7,868.7,763.7C800.8,833.7,715,877.1,619,890
	c-20.2,2.8-61.7,3.8-82.7,2c-40.7-3.3-82.1-13.2-117.8-28.2C267.2,800.7,170.9,653,175.3,491c0.8-27.5,3.5-50,9.3-77.3l0.6-2.7h-9
	C171.2,411,166.9,411.4,166.6,411.8z"/>
<path fill="#186D69" d="M232.7,411.7c-0.4,0.3-0.7,40.2-0.7,88.5V588h9.5h9.5l0.2-73l0.3-73l14,16.8c7.7,9.2,36.9,42.9,64.8,74.9
	c41.4,47.5,51.2,58.3,53.2,58.3h2.5v-90.5V411h-9.6h-9.5l0.3,70.5c0.2,38.7,0,70.1-0.3,69.7c-0.4-0.4-6-7-12.4-14.7
	s-33.6-39.1-60.3-69.8L245.5,411h-6.1C236.1,411,233,411.3,232.7,411.7z"/>
<path fill="#186D69" d="M435,499.5V588h9.5h9.5l0.2-41.8l0.3-41.8l39,41.8l39,41.8h11.9h11.8l-10.5-11.3
	C540,570.6,521.2,550.4,504.1,532L473,498.5l4.4-4.5c8-8.3,74.6-82,74.6-82.5c0-0.3-4.8-0.5-10.8-0.5h-10.7l-38,42l-38,42l-0.3-42
	l-0.2-42h-9.5H435V499.5z"/>
<path d="M588.6,412.2c-0.5,1.6-13.699,169.1-13.6,173v2.8h8.5c4.7,0,8.5-0.4,8.5-0.9c0-0.6,1.8-23.899,4-51.8
	c2.2-27.899,4.4-58,5-66.7c0.5-8.8,1.1-16.1,1.3-16.199c0.2-0.2,4.2,8.1,9,18.399s19.7,41.2,33.2,68.7l24.4,50h3.5h3.6l23.6-48.5
	c22.7-46.6,36.9-76.5,41.101-86l1.899-4.5L743.9,471c0.699,11.3,3,41.9,5.199,68c2.101,26.1,3.9,47.8,3.9,48.2c0,0.5,4.1,0.8,9,0.8
	h9v-3.1c0-1.7-3.1-41.101-7-87.5c-3.8-46.5-7-85-7-85.5s-2.9-0.9-6.3-0.9h-6.4l-10.6,21.7c-5.8,12-19.5,40.2-30.5,62.8
	c-10.9,22.5-22.101,46.1-24.8,52.2c-2.7,6.2-5.101,11.3-5.4,11.3s-3.8-7.3-7.8-16.3c-4-8.9-20-42.101-35.601-73.7l-28.3-57.5
	l-6.2-0.3C590.7,411,588.9,411.3,588.6,412.2z"/>
<path d="M805,499.5V588h51.5H908v-8v-8h-42h-42v-32.5V507h30.5H885v-8v-8h-30.5H824v-32v-32h37h37v-8v-8h-46.5H805V499.5z"/>
</svg>
